<svg width="32" height="32" xmlns="http://www.w3.org/2000/svg"><path d="M11.56 11.005c-.03.034-3.555-1.836-3.595-1.82-.053.022-3.557 4.744-3.613 4.75-.042.005-.838-4.431-.873-4.458-.046-.034-6.382.119-6.418.075C-2.967 9.52.416 5.322.41 5.28c-.006-.055-3.229-3.792-3.22-3.849.008-.043 4.28-.033 4.308-.065.037-.042 1.581-6.318 1.631-6.346.038-.021 2.242 4.218 2.284 4.228.054.013 4.814-2.773 4.865-2.75.04.017-.536 4.3-.516 4.341.025.053 5.021 2.833 5.04 2.887.015.042-4.392 2.116-4.405 2.159-.016.057 1.201 5.077 1.161 5.121z" transform="matrix(1.60586 0 0 1.5034 6.496 9.25)" fill="#0279c4"/></svg>
