<svg width="192" height="192" xmlns="http://www.w3.org/2000/svg">
 <title>canary</title>

 <g>
  <title>Layer 1</title>
  <polygon stroke="null" fill="#7f3f1b" id="r_beak" points="168.86370086669922,44.04988479614258 187.29582977294922,52.73867416381836 171.29744720458984,63.22598648071289 168.86370086669922,44.04988479614258 "/>
  <path stroke="#7f3f1b" id="r_leg_l" d="m88.15524,137.54854s7.91889,19.77155 1.51954,37.14913" fill="none" stroke-width="2"/>
  <path stroke="#7f3f1b" id="r_leg_r" d="m107.30389,137.54854s7.91889,19.77155 1.51954,37.14913" fill="none" stroke-width="2"/>
  <path stroke="null" fill="#9e9c9c" id="r_body" d="m41.46958,123.17254c17.48087,30.2224 145.77684,41.91277 131.05091,-75.82943c-19.50692,-57.22449 -71.15887,-19.16394 -74.01263,-18.27684c-10.35263,6.29482 -26.49927,32.05738 -26.49927,32.05738s-25.44918,27.92565 -30.53901,62.04889z"/>
  <path stroke="null" fill="#797676" id="r_wing" d="m4.70417,84.49224c37.12368,4.32617 48.72406,-10.77896 68.52747,-26.96563c21.00175,-13.47674 29.24185,-3.88869 29.24185,-3.88869a23.8061,23.4172 0 0 1 10.35263,23.96405c-2.74258,16.47832 -12.48986,44.63486 -63.00525,47.04098c-32.33034,-3.59704 -30.50195,-24.26785 -45.1167,-40.15071z"/>
  <circle stroke="null" fill="#797676" id="r_eye" r="7.12647" cy="51.24395" cx="149.07266"/>
  <path stroke="#7f3f1b" id="r_leg_l_t1" d="m92.17028,159.42241s-6.75762,7.48573 -11.62509,10.48731" fill="none" stroke-width="2"/>
  <path stroke="#7f3f1b" id="r_leg_l_t2" d="m92.17028,159.42241s7.56063,9.92831 6.94293,13.47674" fill="none" stroke-width="2"/>
  <path stroke="#7f3f1b" id="r_leg_r_t1" d="m111.34364,159.42241a146.81458,144.41618 0 0 1 -10.69854,10.48731" fill="none" stroke-width="2"/>
  <path stroke="#7f3f1b" id="r_leg_r_t2" d="m111.34364,159.42241s7.26413,4.78795 7.26413,11.98202" fill="none" stroke-width="2"/>
  <path stroke="null" fill="#675a4e" id="r_hat" d="m78.0991,40.75664l85.5883,-20.36701l-7.31355,-2.43043s-10.51323,-19.77155 -43.17712,-9.89185s-28.69827,27.29374 -28.69827,27.29374l-6.39936,5.39556z"/>
  <path stroke="null" fill="#989898" id="r_torch" d="m159.62295,18.05642c3.00201,-0.93572 0.37062,-11.67822 -1.76662,-12.7233a13.46583,13.24585 0 0 0 -8.78367,5.3834l0.90184,6.52571s5.58399,1.96865 9.64845,0.81419z"/>
  <ellipse transform="rotate(-12 158.252 11.5307)" stroke="null" id="r_light" ry="5.79658" rx="1.06244" cy="11.53072" cx="158.25166" fill="#fff"/>
 </g>
</svg>
