<svg width="96" height="96" xmlns="http://www.w3.org/2000/svg">
 <title>canary</title>

 <g>
  <title>Layer 1</title>
  <g stroke="null" id="svg_1">
   <polygon stroke="null" id="y_beak" fill="#fbb879" points="87.64188385009766,16.385940256156573 95.64688873291016,20.036591870723896 88.70420837402344,24.44290511316285 87.64188385009766,16.385940256156573 "/>
   <path stroke="null" id="y_body" fill="#fdf5a0" d="m32.31509,49.64518c7.59187,12.69815 63.31033,17.60994 56.91491,-31.86025c-8.46641,-24.04326 -30.90402,-8.05697 -32.1434,-7.65871c-4.50684,2.60907 -11.4817,13.43338 -11.4817,13.43338s-11.07931,11.73315 -13.2898,26.08558z"/>
   <path stroke="null" id="y_wing" fill="#ffe579" d="m16.34801,33.37807c16.13877,1.81767 21.16604,-4.52885 29.76122,-11.30426c9.12098,-5.66234 12.69962,-1.63386 12.69962,-1.63386a10.3389,9.83889 0 0 1 4.50147,10.04313c-1.19646,6.90816 -5.42967,18.75874 -27.36294,19.76459c-14.04094,-1.51132 -13.24688,-10.1963 -19.59937,-16.86959z"/>
   <circle stroke="null" id="y_eye" fill="#d8bf56" r="3.02264" cy="19.40858" cx="79.0467"/>
   <path stroke="null" id="y_hat" fill="#675a4e" d="m48.22852,15.00226l37.17067,-8.55734l-3.17625,-1.02116s-4.57122,-8.29694 -18.75166,-4.14081s-12.46891,11.45233 -12.46891,11.45233l-2.77385,2.26698z"/>
   <path stroke="null" id="y_torch" fill="#989898" d="m83.62865,5.46461c1.30376,-0.39315 0.16096,-4.90668 -0.76724,-5.34578a5.84816,5.56533 0 0 0 -3.81472,2.26187l0.39167,2.74182s2.42511,0.82714 4.19029,0.34209z"/>
   <ellipse stroke="null" id="y_light" transform="matrix(0.525798 -0.0970104 0.10194 0.500369 -0.225342 14.6845)" ry="4.77" rx="0.86" cy="6.77891" cx="157.17582" fill="#fff"/>
   <polygon stroke="null" fill="#f04c29" id="o_beak" points="8.005001068115234,32.673467680016984 0,36.324130724635324 6.948040008544922,40.73043825204877 8.005001068115234,32.673467680016984 "/>
   <path stroke="#f04c29" fill="none" id="o_leg_r" d="m43.05639,71.94735s-3.43915,8.30715 -0.67066,15.60846" stroke-width="2"/>
   <path stroke="#f04c29" fill="none" id="o_leg_l" d="m34.72947,71.94735s-3.43915,8.30715 -0.65993,15.60846" stroke-width="2"/>
   <path stroke="null" fill="#fdbf27" id="o_body" d="m63.31033,65.91739c-7.57041,12.69815 -63.31033,17.60994 -56.87199,-31.86025c8.46641,-24.04326 30.90402,-8.05697 32.1434,-7.65871c4.49611,2.64481 11.50853,13.46913 11.50853,13.46913s11.03102,11.71273 13.22005,26.04984z"/>
   <path stroke="null" fill="#faa523" id="o_wing" d="m79.29887,49.64518c-16.13877,1.81256 -21.16604,-4.53396 -29.76122,-11.32979c-9.12098,-5.66234 -12.69962,-1.63386 -12.69962,-1.63386a10.3389,9.83889 0 0 0 -4.49611,10.06866c1.19109,6.92348 5.4243,18.75364 27.36294,19.76459c14.04094,-1.4909 13.26298,-10.17588 19.59401,-16.86959z"/>
   <circle stroke="null" fill="#d68a28" id="o_eye" r="3.02264" cy="35.69611" cx="16.60018"/>
   <path stroke="#f04c29" id="o_leg_r_t2" d="m41.31267,81.13271s2.93481,3.14518 5.04873,4.40631" fill="none" stroke-width="2"/>
   <path stroke="#f04c29" id="o_leg_r_t1" d="m41.31267,81.13271s-3.28355,4.17145 -3.01529,5.66234" fill="none" stroke-width="2"/>
   <path stroke="#f04c29" id="o_leg_l_t2" d="m32.98575,81.13271a63.76101,60.67744 0 0 0 4.64633,4.40631" fill="none" stroke-width="2"/>
   <path stroke="#f04c29" id="o_leg_l_t1" d="m32.98575,81.13271s-3.15479,2.01169 -3.15479,5.03433" fill="none" stroke-width="2"/>
   <path stroke="null" fill="#675a4e" id="o_hat" d="m47.42373,31.26427l-37.17067,-8.53691l3.17625,-1.02116s4.56585,-8.31226 18.76239,-4.14081s12.45282,11.45744 12.45282,11.45744l2.77922,2.24145z"/>
   <path stroke="null" fill="#989898" id="o_torch" d="m12.01823,21.75214c-1.28767,-0.39315 -0.16096,-4.90668 0.7726,-5.34578a5.84816,5.56533 0 0 1 3.81472,2.26187l-0.39703,2.74182s-2.42511,0.82714 -4.19029,0.34209z"/>
   <ellipse stroke="null" id="o_light" transform="matrix(0.103753 -0.500943 0.526401 0.0987353 -9.61103 27.064)" ry="0.86" rx="4.77" cy="37.28232" cx="23.14" fill="#fff"/>
   <polygon stroke="null" fill="#7f3f1b" id="r_beak" points="87.89940643310547,40.9959430971212 95.90441131591797,44.64659471168852 88.95637512207031,49.052906049118974 87.89940643310547,40.9959430971212 "/>
   <path stroke="#7f3f1b" id="r_leg_l" d="m52.84803,80.28004s3.43915,8.30715 0.65993,15.60846" fill="none" stroke-width="2"/>
   <path stroke="#7f3f1b" id="r_leg_r" d="m61.16421,80.28004s3.43915,8.30715 0.65993,15.60846" fill="none" stroke-width="2"/>
   <path stroke="null" fill="#f04c29" id="r_body" d="m32.57263,74.23986c7.59187,12.69815 63.31033,17.60994 56.91491,-31.86025c-8.47178,-24.04326 -30.90402,-8.05186 -32.1434,-7.67914c-4.49611,2.64481 -11.50853,13.46913 -11.50853,13.46913s-11.05248,11.73315 -13.26298,26.07026z"/>
   <path stroke="null" fill="#e43226" id="r_wing" d="m16.60555,57.98807c16.12267,1.81767 21.16067,-4.52885 29.76122,-11.32979c9.12098,-5.66234 12.69962,-1.63386 12.69962,-1.63386a10.3389,9.83889 0 0 1 4.49611,10.06866c-1.19109,6.92348 -5.4243,18.75364 -27.36294,19.76459c-14.04094,-1.51132 -13.24688,-10.1963 -19.59401,-16.86959z"/>
   <circle stroke="null" fill="#d61f35" id="r_eye" r="3.02264" cy="44.01858" cx="79.30423"/>
   <path stroke="#7f3f1b" id="r_leg_l_t1" d="m54.59174,89.47049s-2.93481,3.14518 -5.04873,4.40631" fill="none" stroke-width="2"/>
   <path stroke="#7f3f1b" id="r_leg_l_t2" d="m54.59174,89.47049s3.28355,4.17145 3.01529,5.66234" fill="none" stroke-width="2"/>
   <path stroke="#7f3f1b" id="r_leg_r_t1" d="m62.91866,89.47049a63.76101,60.67744 0 0 1 -4.64633,4.40631" fill="none" stroke-width="2"/>
   <path stroke="#7f3f1b" id="r_leg_r_t2" d="m62.91866,89.47049s3.15479,2.01169 3.15479,5.03433" fill="none" stroke-width="2"/>
   <path stroke="null" fill="#675a4e" id="r_hat" d="m48.48069,39.61226l37.17067,-8.55734l-3.17625,-1.02116s-4.56585,-8.30715 -18.75166,-4.15613s-12.46355,11.46765 -12.46355,11.46765l-2.77922,2.26698z"/>
   <path stroke="null" fill="#989898" id="r_torch" d="m83.88618,30.07461c1.30376,-0.39315 0.16096,-4.90668 -0.76724,-5.34578a5.84816,5.56533 0 0 0 -3.81472,2.26187l0.39167,2.74182s2.42511,0.82714 4.19029,0.34209z"/>
   <ellipse stroke="null" id="r_light" transform="matrix(0.526401 -0.0987352 0.103753 0.500943 -3.9581 15.959)" ry="4.77" rx="0.86" cy="53.30233" cx="155.24" fill="#fff"/>
  </g>
 </g>
</svg>