<?xml version="1.0" standalone="no"?>
<!DOCTYPE svg PUBLIC "-//W3C//DTD SVG 20010904//EN"
 "http://www.w3.org/TR/2001/REC-SVG-20010904/DTD/svg10.dtd">
<svg version="1.0" xmlns="http://www.w3.org/2000/svg"
 width="700.000000pt" height="700.000000pt" viewBox="0 0 700.000000 700.000000"
 preserveAspectRatio="xMidYMid meet">
<metadata>
Created by potrace 1.11, written by Peter Selinger 2001-2013
</metadata>
<g transform="translate(0.000000,700.000000) scale(0.100000,-0.100000)"
fill="#000000" stroke="none">
<path d="M4755 6993 c-231 -25 -512 -110 -730 -221 -322 -164 -504 -391 -507
-634 l-1 -58 -88 -72 c-48 -40 -88 -76 -88 -79 -1 -3 34 2 77 13 42 10 112 27
154 37 l77 18 -35 -41 c-42 -49 -216 -280 -264 -351 -19 -27 -51 -76 -73 -108
-21 -31 -48 -62 -58 -68 -11 -6 -66 -49 -122 -95 l-102 -86 -25 34 c-14 18
-47 56 -73 84 -162 174 -565 364 -902 423 -33 6 -71 14 -85 17 -14 2 -83 6
-155 8 -120 4 -238 -8 -335 -32 -83 -21 -211 -77 -252 -110 -16 -13 -23 -9
-74 37 -58 53 -109 82 -176 100 -34 8 -40 7 -58 -16 -44 -56 -82 -250 -63
-317 9 -29 19 -38 58 -51 15 -6 1 -14 -60 -35 -48 -17 -74 -30 -65 -34 14 -5
117 -31 170 -42 36 -8 36 -10 -1 -41 -91 -76 -180 -181 -256 -303 -44 -71
-130 -247 -159 -324 l-18 -48 -175 -85 c-97 -47 -200 -96 -228 -110 -29 -13
-53 -28 -53 -31 1 -4 49 -38 108 -77 59 -38 112 -73 117 -78 6 -4 42 -28 80
-53 39 -26 75 -52 81 -58 8 -7 14 -87 18 -226 3 -118 8 -226 10 -240 2 -14 7
-50 11 -80 97 -796 506 -1396 1162 -1706 139 -66 186 -83 599 -212 37 -12 57
-25 73 -50 20 -30 21 -38 12 -90 -25 -140 -26 -148 -37 -277 l-6 -80 -54 -55
c-29 -30 -63 -67 -74 -82 -34 -45 -77 -150 -82 -201 -5 -42 -3 -47 16 -48 12
0 28 -2 37 -4 13 -2 18 8 22 45 3 27 15 69 26 93 21 46 96 147 109 147 4 0 7
-12 8 -28 1 -66 16 -163 35 -237 11 -44 23 -90 26 -102 6 -26 20 -28 57 -12
24 11 24 12 10 52 -23 64 -42 155 -50 237 l-7 75 122 -120 c67 -66 124 -122
127 -125 2 -2 16 8 30 23 l24 27 -155 154 -155 153 5 54 c3 30 8 79 11 109 4
30 8 66 9 80 1 14 6 44 10 68 7 42 8 43 25 25 64 -67 204 -160 340 -225 105
-51 108 -53 105 -83 -1 -16 -28 -68 -59 -115 -78 -118 -137 -239 -143 -291
l-5 -45 36 -2 c26 -2 36 1 37 13 2 24 3 27 23 80 11 28 30 67 43 87 12 21 23
41 23 45 1 5 12 22 25 38 16 19 25 25 26 15 6 -127 56 -340 80 -340 4 0 20 5
34 10 20 8 25 15 20 28 -13 33 -35 127 -45 187 -14 87 -20 145 -16 145 1 0 33
-30 71 -66 84 -82 195 -174 210 -174 6 0 18 13 28 29 l17 29 -38 25 c-85 58
-292 264 -292 290 0 14 4 17 18 12 37 -16 142 -47 232 -70 100 -25 120 -30
210 -45 30 -6 64 -12 75 -14 11 -2 54 -7 95 -11 116 -11 132 -13 141 -22 19
-19 54 -230 65 -385 l7 -87 -104 -103 c-57 -57 -132 -125 -166 -152 -62 -48
-64 -54 -35 -88 14 -16 16 -16 46 4 49 34 95 74 179 156 l79 77 -7 -60 c-4
-33 -9 -69 -11 -80 -17 -94 -27 -135 -40 -168 -19 -51 -19 -52 20 -64 l34 -11
16 49 c21 62 43 168 51 244 4 33 8 61 9 62 7 8 104 -171 123 -226 12 -36 24
-65 27 -63 4 1 17 2 31 2 21 0 25 5 25 28 0 45 -57 176 -109 250 -76 109 -95
146 -97 191 -1 25 -4 71 -8 101 -3 30 -8 75 -11 100 -3 25 -13 84 -24 133 -10
48 -18 88 -18 88 1 1 65 3 142 4 143 2 324 13 336 21 11 6 27 -46 45 -141 9
-49 17 -97 19 -105 2 -8 6 -51 10 -95 4 -44 8 -91 10 -105 1 -14 0 -33 -4 -42
-6 -18 -145 -163 -226 -239 -77 -70 -78 -72 -56 -97 10 -12 23 -22 29 -22 5 0
63 52 129 115 65 63 121 115 124 115 5 0 -7 -90 -27 -200 -3 -19 -14 -59 -24
-88 l-19 -53 32 -14 c17 -7 35 -11 38 -9 6 4 37 107 45 152 3 14 7 28 9 31 2
4 6 38 10 76 13 134 16 142 46 105 71 -90 109 -171 109 -232 0 -27 2 -28 38
-26 l38 3 -4 45 c-9 96 -74 213 -163 294 l-50 45 -4 83 c-3 46 -7 92 -9 103
-2 11 -7 45 -11 75 -4 30 -16 95 -26 144 -10 49 -18 90 -16 90 1 1 63 14 137
28 283 56 546 157 773 296 561 343 894 919 972 1682 12 120 14 144 14 301 l1
156 200 133 c110 73 200 136 200 139 0 4 -71 40 -157 81 -86 41 -189 91 -227
110 l-70 35 -48 115 c-27 63 -47 124 -44 135 2 11 18 73 35 139 17 65 33 130
36 145 2 14 7 37 9 51 5 24 7 37 21 145 4 28 8 61 10 73 8 49 18 242 19 361
l1 124 203 136 204 136 -124 60 c-68 33 -172 83 -231 110 -106 50 -107 50
-126 100 -92 241 -211 430 -367 582 l-84 81 91 21 c50 12 97 21 105 21 35 0 8
18 -60 40 -70 23 -89 40 -46 40 11 0 27 11 35 24 38 58 -3 292 -63 354 -25 27
-153 -29 -224 -98 l-51 -50 -36 23 c-79 49 -182 88 -299 113 -71 15 -290 25
-367 17z"/>
</g>
</svg>
