<?xml version="1.0" standalone="no"?>
<!DOCTYPE svg PUBLIC "-//W3C//DTD SVG 20010904//EN"
 "http://www.w3.org/TR/2001/REC-SVG-20010904/DTD/svg10.dtd">
<svg version="1.0" xmlns="http://www.w3.org/2000/svg"
 width="512.000000pt" height="512.000000pt" viewBox="0 0 512.000000 512.000000"
 preserveAspectRatio="xMidYMid meet">
<metadata>
Created by potrace 1.11, written by Peter Selinger 2001-2013
</metadata>
<g transform="translate(0.000000,512.000000) scale(0.100000,-0.100000)"
fill="#212121" stroke="none">
<path d="M3479 5116 c-2 -2 -29 -7 -59 -10 -128 -15 -316 -74 -455 -143 -246
-122 -376 -274 -391 -456 -4 -58 -7 -64 -46 -97 -24 -19 -54 -45 -68 -57 l-25
-21 65 14 c36 7 88 20 116 28 l51 14 -79 -102 c-43 -55 -108 -145 -144 -198
-44 -64 -85 -112 -122 -140 -31 -24 -71 -57 -90 -75 l-34 -32 -82 82 c-93 94
-193 157 -336 213 -52 20 -104 41 -115 45 -43 18 -223 60 -285 66 -200 20
-359 -5 -489 -77 l-55 -30 -35 34 c-20 19 -61 46 -91 60 -50 23 -56 24 -72 9
-24 -22 -58 -134 -58 -192 0 -51 14 -77 45 -83 13 -3 1 -10 -37 -23 -31 -10
-55 -21 -53 -25 2 -4 33 -13 67 -20 35 -7 66 -15 70 -17 4 -2 -24 -34 -61 -71
-98 -98 -178 -223 -240 -373 -30 -72 -35 -77 -84 -101 -29 -14 -105 -51 -169
-83 l-117 -57 150 -99 149 -100 0 -77 c1 -155 9 -251 30 -387 66 -433 266
-787 576 -1020 167 -126 311 -194 605 -285 166 -52 172 -58 153 -158 -7 -37
-16 -105 -20 -152 l-7 -84 -50 -51 c-56 -56 -98 -136 -100 -192 -2 -30 2 -36
20 -39 18 -3 24 2 29 24 12 60 36 111 69 148 33 38 34 38 35 14 1 -14 3 -36 5
-50 3 -14 7 -41 10 -60 9 -65 15 -87 30 -123 11 -28 19 -34 35 -30 24 6 24 7
6 77 -8 30 -17 78 -21 107 -4 28 -9 61 -11 73 -2 13 26 -9 83 -64 48 -47 90
-89 94 -94 8 -11 39 11 39 27 0 6 -49 59 -109 118 l-108 108 3 58 c1 32 8 87
13 123 6 36 11 70 11 75 0 7 3 7 8 0 30 -42 166 -132 270 -180 75 -34 79 -52
28 -124 -53 -75 -116 -202 -116 -233 0 -23 4 -28 25 -28 18 0 25 5 25 19 0 25
99 212 100 191 6 -76 39 -224 53 -245 11 -14 15 -14 32 -1 17 13 18 18 8 48
-17 45 -42 209 -32 206 4 -2 32 -26 61 -53 96 -91 137 -119 153 -105 22 18 18
36 -12 56 -49 31 -187 166 -207 201 -10 18 -6 18 124 -21 88 -26 271 -61 375
-71 33 -3 61 -8 63 -10 13 -13 41 -181 48 -283 l4 -63 -78 -77 c-43 -42 -98
-93 -123 -114 -41 -34 -43 -37 -27 -53 15 -16 19 -16 60 13 23 17 66 53 95 81
57 56 74 63 68 29 -2 -13 -6 -41 -10 -63 -3 -22 -12 -65 -21 -95 -15 -51 -15
-55 2 -67 27 -20 31 -17 48 40 14 47 36 170 34 186 -2 22 4 22 19 1 31 -43 83
-152 83 -171 0 -14 7 -19 29 -19 29 0 29 0 20 41 -11 49 -36 100 -99 199 -46
72 -48 79 -54 170 -4 52 -11 114 -17 138 -5 23 -12 57 -14 75 l-6 33 103 0
c57 0 138 3 180 7 74 5 78 5 82 -16 3 -12 10 -44 15 -72 14 -68 22 -126 26
-204 l4 -65 -110 -110 c-86 -85 -109 -113 -102 -125 5 -8 14 -16 19 -18 6 -2
51 37 102 87 87 85 92 88 87 57 -3 -18 -7 -48 -10 -67 -5 -43 -9 -62 -25 -119
-13 -48 -13 -46 15 -55 17 -5 23 0 33 26 6 18 13 44 16 58 3 14 7 34 9 45 3
11 8 48 12 83 4 34 11 62 15 62 23 0 84 -105 95 -163 6 -31 11 -38 29 -35 18
3 21 9 19 44 -2 57 -43 133 -101 191 l-49 48 -7 90 c-3 50 -14 131 -25 180
-10 50 -18 91 -17 92 1 1 20 5 42 9 143 22 328 78 459 139 381 179 643 470
778 868 74 216 106 422 111 710 l1 77 148 99 149 99 -79 37 c-43 21 -118 57
-168 81 l-89 43 -37 86 -37 86 29 117 c16 64 31 135 34 157 4 22 8 49 9 60 15
86 23 196 25 335 l1 105 150 99 150 99 -113 53 c-61 30 -138 67 -169 82 -53
25 -60 32 -79 82 -70 176 -180 342 -288 432 l-32 28 23 9 c13 4 47 14 77 21
60 14 55 23 -28 46 -25 7 -36 13 -24 13 51 2 67 84 37 189 -24 82 -40 103 -73
96 -42 -10 -121 -56 -144 -84 l-21 -25 -73 36 c-99 50 -187 70 -324 75 -64 2
-118 2 -120 0z"/>
</g>
</svg>
